<?xml version="1.0" standalone="no"?>
<!DOCTYPE svg PUBLIC "-//W3C//DTD SVG 20010904//EN"
 "http://www.w3.org/TR/2001/REC-SVG-20010904/DTD/svg10.dtd">
<svg version="1.0" xmlns="http://www.w3.org/2000/svg"
 width="1000.000000pt" height="1000.000000pt" viewBox="0 0 1000.000000 1000.000000"
 preserveAspectRatio="xMidYMid meet">
<metadata>
Created by potrace 1.14, written by Peter Selinger 2001-2017
</metadata>
<g transform="translate(0.000000,1000.000000) scale(0.100000,-0.100000)"
fill="#000000" stroke="none">
<path d="M4538 7385 c-2 -1 -32 -6 -66 -9 -85 -9 -223 -33 -297 -52 -33 -9
-68 -18 -78 -19 -9 -2 -21 -6 -25 -9 -5 -3 -19 -7 -33 -10 -24 -5 -148 -49
-224 -81 -174 -72 -449 -239 -589 -358 -423 -360 -688 -797 -806 -1326 -11
-51 -23 -109 -25 -129 -3 -20 -7 -53 -10 -72 -26 -202 -22 -496 10 -670 3 -14
10 -52 15 -85 47 -259 182 -596 337 -832 21 -32 40 -60 43 -63 3 -3 18 -24 33
-46 46 -68 163 -203 251 -289 166 -165 369 -313 551 -405 50 -25 92 -48 93
-52 2 -5 11 -8 21 -8 9 0 21 -4 27 -9 11 -11 161 -69 254 -99 108 -34 237 -65
325 -78 17 -2 40 -6 53 -9 133 -26 554 -26 676 0 11 2 39 7 60 10 90 13 247
52 361 90 268 90 528 235 753 418 86 70 240 221 297 292 22 28 48 59 59 70 50
55 206 306 266 430 78 159 155 371 176 480 2 11 6 31 9 45 13 61 26 131 30
160 17 122 20 181 19 355 0 176 -9 338 -20 356 -2 4 -6 28 -9 55 -4 26 -8 51
-10 54 -2 4 -7 22 -10 40 -16 92 -70 263 -121 388 -158 384 -405 709 -737 972
-11 8 -24 20 -31 26 -6 5 -60 43 -121 83 -120 79 -342 194 -445 231 -146 52
-210 72 -309 96 -106 25 -119 28 -206 39 -27 4 -77 10 -110 15 -53 7 -430 11
-437 5z"/>
<path d="M786 7354 c-37 -7 -91 -21 -120 -30 -61 -20 -214 -97 -242 -122 -10
-9 -36 -30 -57 -45 -108 -81 -244 -294 -282 -442 -58 -226 -29 -466 81 -663
159 -284 463 -460 784 -454 114 2 171 12 280 49 253 85 470 303 550 552 32
103 43 175 43 291 -2 284 -137 547 -369 713 -100 72 -253 134 -374 153 -78 12
-222 11 -294 -2z"/>
<path d="M8115 3820 c-295 -63 -499 -323 -489 -623 6 -171 57 -291 179 -412
130 -130 265 -184 450 -181 204 5 382 103 498 274 35 51 74 141 84 192 33 169
21 273 -49 419 -56 118 -159 220 -278 278 -47 23 -101 44 -120 48 -57 11 -232
15 -275 5z"/>
<path d="M9509 3581 c-60 -12 -143 -58 -188 -103 -208 -210 -94 -573 196 -627
126 -24 259 22 347 119 108 120 124 305 37 443 -42 65 -85 103 -158 138 -66
33 -164 45 -234 30z"/>
</g>
</svg>
