<svg xmlns="http://www.w3.org/2000/svg" viewBox="0 0 935.23 186.86" fill="#1d1d1b" xmlns:v="https://vecta.io/nano"><circle cx="34.5" cy="35.43" r="34.5"/><circle cx="182.57" cy="92.43" r="92.43"/><circle cx="319" cy="162.86" r="24"/><circle cx="371.5" cy="162.86" r="14.5"/><path d="M456.17 70.54a20.75 20.75 0 0 1-6.07-15.18 21.42 21.42 0 1 1 42.84 0 21.65 21.65 0 0 1-36.77 15.18zm22.25-7.47a11.37 11.37 0 0 0 2.7-7.71 11.53 11.53 0 0 0-2.7-7.76 9.2 9.2 0 0 0-13.84 0 11.62 11.62 0 0 0-2.66 7.8 11.43 11.43 0 0 0 2.66 7.75 9.27 9.27 0 0 0 13.84 0zm58.64-22.94a22.25 22.25 0 0 1 5.37 15.23 22.22 22.22 0 0 1-5.37 15.22 17.4 17.4 0 0 1-13.67 6.12 15.56 15.56 0 0 1-11.24-4.44v24.22l-11.82-.09V34.84h11.82v3.61A15.55 15.55 0 0 1 523.39 34a17.43 17.43 0 0 1 13.67 6.13zM528 63.07a11.49 11.49 0 0 0 2.66-7.71A11.66 11.66 0 0 0 528 47.6a9 9 0 0 0-12.32-1.31 10.29 10.29 0 0 0-3.48 4.8v8.53a10.24 10.24 0 0 0 3.44 4.77A9.19 9.19 0 0 0 528 63.07zm59.16-4.27h-27.82q1.06 8.7 9 8.7a10.15 10.15 0 0 0 5.22-1.27 14.41 14.41 0 0 0 4.31-4.39l8.47 4.16a17.52 17.52 0 0 1-7 7.84 20.42 20.42 0 0 1-10.75 2.83q-10.33 0-15.76-5.87-5.43-5.87-5.42-15.47Q547.43 46 553 40q5.57-6 15.18-6 8.87 0 14 5.79 5.13 5.79 5.17 15.55a26.77 26.77 0 0 1-.19 3.46zm-27.58-8h16.5q-1.32-7.47-8-7.47-6.68 0-8.5 7.43zm70.75-12.43q4.44 4.35 4.43 11.57v25.94h-12V51.42a6.5 6.5 0 0 0-2.13-5.05 7.89 7.89 0 0 0-5.5-1.93 8.46 8.46 0 0 0-5.95 2.22 7 7 0 0 0-2.43 5.41v23.81h-12v-41h10.75l.66 4.76A16.23 16.23 0 0 1 618.67 34q7.23 0 11.66 4.37zM456.17 149.54a22.16 22.16 0 1 1 15.35 6.16 20.75 20.75 0 0 1-15.35-6.16zm22.25-7.47a11.37 11.37 0 0 0 2.7-7.71 11.53 11.53 0 0 0-2.7-7.76 9.2 9.2 0 0 0-13.84 0 11.62 11.62 0 0 0-2.66 7.8 11.43 11.43 0 0 0 2.66 7.75 9.27 9.27 0 0 0 13.84 0zm54.98-25.52l-5 8.78a10.69 10.69 0 0 0-6.41-1.89 9.17 9.17 0 0 0-6.77 3 10.86 10.86 0 0 0-2.91 7.92v20.52h-12v-41h10.75l.65 6.32q4.6-7.14 11.74-7.14c4.23-.06 7.55 1.13 9.95 3.49zm42.6-2.71v40.87q0 9.36-5.79 15-5.79 5.64-15.3 5.66a28.49 28.49 0 0 1-11.91-2.44v-11.41a19.4 19.4 0 0 0 12 4 8.51 8.51 0 0 0 6.52-2.79q2.6-2.81 2.59-8v-3.45a15.49 15.49 0 0 1-11.16 4.44 17.36 17.36 0 0 1-13.71-6.12 22.3 22.3 0 0 1-5.34-15.22 22.32 22.32 0 0 1 5.34-15.23 17.38 17.38 0 0 1 13.7-6.15 15.31 15.31 0 0 1 11.81 5.09l.58-4.27zm-15.39 29.59a10.6 10.6 0 0 0 3.49-4.72V130a10.68 10.68 0 0 0-3.53-4.76 8.47 8.47 0 0 0-5.25-1.81 8.7 8.7 0 0 0-6.94 3.12 11.58 11.58 0 0 0-2.67 7.8 11.39 11.39 0 0 0 2.67 7.75 8.76 8.76 0 0 0 6.94 3.08 8.59 8.59 0 0 0 5.29-1.75zM617 117q5.09 3.93 5.08 11.82v26.1H612l-.58-4a21.63 21.63 0 0 1-13.54 4.85 13.6 13.6 0 0 1-9.6-3.41 11.85 11.85 0 0 1-3.7-9.15 11.17 11.17 0 0 1 5.3-9.73q5.3-3.57 14.73-2.09l5.83.9v-3.53a5.69 5.69 0 0 0-2.34-5 9.79 9.79 0 0 0-5.79-1.64 12.65 12.65 0 0 0-10.06 4.88l-7.14-6.81a20.71 20.71 0 0 1 7.71-5.46 29.34 29.34 0 0 1 10.67-1.73q8.51 0 13.51 4zm-18.55 28.76a5.33 5.33 0 0 0 3.61 1.19q4.18 0 8.37-3.69V139l-3.28-.66c-3.62-.71-6.2-.63-7.76.24a4.2 4.2 0 0 0-2.34 3.86 4 4 0 0 0 1.44 3.28zm68.81-28.39q4.44 4.35 4.43 11.57v25.94h-12v-24.46a6.5 6.5 0 0 0-2.13-5 7.89 7.89 0 0 0-5.5-1.93 8.46 8.46 0 0 0-6 2.22 7 7 0 0 0-2.42 5.41v23.81h-12v-41h10.75l.66 4.76a16.23 16.23 0 0 1 12.56-5.69q7.22 0 11.65 4.37zm16.29-12.56a6.64 6.64 0 0 1 0-9.52 6.51 6.51 0 0 1 4.72-2 6.59 6.59 0 0 1 4.8 2 6.64 6.64 0 0 1 0 9.52 6.63 6.63 0 0 1-4.8 2 6.55 6.55 0 0 1-4.72-2zm-1.27 9h12v41h-12zm21.42 32.28l20.6-22.49h-20.52v-9.76h35.62v8.62l-20.68 22.65h20.85v9.77H703.7zM777.07 117q5.1 3.93 5.09 11.82v26.1h-10.09l-.58-4A21.63 21.63 0 0 1 758 155.7a13.6 13.6 0 0 1-9.6-3.41 11.82 11.82 0 0 1-3.7-9.15 11.17 11.17 0 0 1 5.3-9.73q5.29-3.57 14.73-2.09l5.83.9v-3.53a5.69 5.69 0 0 0-2.34-5 9.79 9.79 0 0 0-5.79-1.64 12.65 12.65 0 0 0-10.14 4.95l-7.14-6.81a20.63 20.63 0 0 1 7.71-5.46 29.34 29.34 0 0 1 10.67-1.73q8.47 0 13.54 4zm-18.55 28.76a5.37 5.37 0 0 0 3.62 1.19q4.18 0 8.37-3.69V139l-3.29-.66q-5.41-1.06-7.75.24a4.2 4.2 0 0 0-2.34 3.86 4 4 0 0 0 1.39 3.28zm60.66 6.9a13.9 13.9 0 0 1-9.36 3q-8.13 0-12.23-4.07-4.1-4.07-4.1-11.12v-17.69h-4.93v-8.94h4.93v-14h12v14h10.26v8.94h-10.28v17.81a5.39 5.39 0 0 0 1.15 3.74 4 4 0 0 0 3.12 1.27 4.82 4.82 0 0 0 3.69-1.48zm6.68-47.85a6.64 6.64 0 0 1 0-9.52 6.51 6.51 0 0 1 4.72-2 6.59 6.59 0 0 1 4.8 2 6.62 6.62 0 0 1 0 9.52 6.63 6.63 0 0 1-4.8 2 6.55 6.55 0 0 1-4.72-2zm-1.27 9h12v41h-12zm26.51 35.73a22.14 22.14 0 1 1 15.35 6.16 20.75 20.75 0 0 1-15.35-6.16zm22.24-7.47a11.33 11.33 0 0 0 2.71-7.71 11.49 11.49 0 0 0-2.71-7.76 9.18 9.18 0 0 0-13.83 0 11.58 11.58 0 0 0-2.67 7.8 11.39 11.39 0 0 0 2.67 7.75 9.26 9.26 0 0 0 13.83 0zm57.45-24.7q4.44 4.35 4.44 11.57v25.94h-12v-24.46a6.5 6.5 0 0 0-2.13-5 7.87 7.87 0 0 0-5.5-1.93 8.48 8.48 0 0 0-6 2.22 7 7 0 0 0-2.42 5.41v23.81h-12v-41H906l.65 4.76a16.23 16.23 0 0 1 12.49-5.69q7.22 0 11.65 4.37z"/></svg>