<?xml version="1.0" encoding="utf-8"?>
<!-- Generator: Adobe Illustrator 28.1.0, SVG Export Plug-In . SVG Version: 6.00 Build 0)  -->
<svg version="1.1" id="Livello_3" xmlns="http://www.w3.org/2000/svg" xmlns:xlink="http://www.w3.org/1999/xlink" x="0px" y="0px"
	 viewBox="0 0 371.53 183.86" style="enable-background:new 0 0 371.53 183.86;" xml:space="preserve">
<g id="LOGO">
</g>
<g id="Livello_2">
	<g>
		<path d="M39.37,25.09v-5.52c-0.32-4.72-1.66-8.06-4.02-10.02C32.99,7.58,29.57,6.6,25.09,6.6c-9.04,0-13.97,3.48-14.77,10.44H2.64
			C4.32,5.68,11.84,0,25.21,0c6.88,0,12.18,1.64,15.91,4.92c3.72,3.28,5.54,8.28,5.46,15V48.5c0,1.52,0.2,6.04,0.6,13.56h-7.44
			l-0.24-8.88h-0.24l-0.36,0.84c-1.36,2.64-3.86,4.94-7.5,6.9c-3.64,1.96-7.42,2.94-11.34,2.94c-5.76,0-10.54-1.68-14.35-5.04
			C1.9,55.46,0,50.94,0,45.26c0-4,1.1-7.52,3.3-10.56c2.2-3.04,5.14-5.32,8.82-6.84c2.4-1.04,5.04-1.74,7.92-2.1
			c2.88-0.36,6.5-0.54,10.86-0.54C35.27,25.21,38.09,25.17,39.37,25.09z M7.8,45.26c0,3.92,1.28,6.9,3.84,8.94
			c2.56,2.04,5.8,3.06,9.72,3.06c12.96,0,18.97-8.52,18.01-25.57c-0.72,0-2.34,0.02-4.86,0.06c-2.52,0.04-4.5,0.1-5.94,0.18
			c-1.44,0.08-3.36,0.24-5.76,0.48s-4.36,0.66-5.88,1.26c-1.52,0.6-3.04,1.38-4.56,2.34c-1.52,0.96-2.66,2.22-3.42,3.78
			C8.18,41.35,7.8,43.18,7.8,45.26z"/>
		<path d="M72.51,27.37v34.69h-7.2v-46.7c0-2.24-0.2-6.76-0.6-13.56h7.44l0.36,8.88l0.24,0.24C76.83,3.64,83.11,0,91.59,0
			c3.76,0,7.02,0.64,9.78,1.92c2.76,1.28,4.84,2.8,6.24,4.56c1.4,1.76,2.52,3.88,3.36,6.36c0.84,2.48,1.36,4.56,1.56,6.24
			c0.2,1.68,0.3,3.44,0.3,5.28v37.69h-7.2V23.17c0-5.2-1.4-9.26-4.2-12.18c-2.8-2.92-6.68-4.38-11.64-4.38c-5.6,0-9.88,2-12.84,6
			C73.99,16.61,72.51,21.53,72.51,27.37z"/>
		<path d="M121,1.8h8.76l20.29,50.42L170.22,1.8h7.8l-33.25,83.31h-7.92l9.12-23.05L121,1.8z"/>
		<path d="M190.21,9.48C195.05,3.16,201.99,0,211.04,0c9.04,0,15.98,3.16,20.83,9.48c4.84,6.32,7.26,13.8,7.26,22.45
			s-2.42,16.13-7.26,22.45c-4.84,6.32-11.79,9.48-20.83,9.48c-9.04,0-15.99-3.16-20.83-9.48c-4.84-6.32-7.26-13.8-7.26-22.45
			S185.36,15.81,190.21,9.48z M226.16,49.46c3.44-5.2,5.16-11.04,5.16-17.53c0-6.48-1.72-12.32-5.16-17.53
			c-3.44-5.2-8.48-7.8-15.12-7.8c-6.64,0-11.69,2.6-15.13,7.8c-3.44,5.2-5.16,11.04-5.16,17.53c0,6.48,1.72,12.32,5.16,17.53
			c3.44,5.2,8.48,7.8,15.13,7.8C217.68,57.26,222.72,54.66,226.16,49.46z"/>
		<path d="M261.21,27.37v34.69h-7.2v-46.7c0-2.24-0.2-6.76-0.6-13.56h7.44l0.36,8.88l0.24,0.24C265.53,3.64,271.82,0,280.3,0
			c3.76,0,7.02,0.64,9.78,1.92c2.76,1.28,4.84,2.8,6.24,4.56c1.4,1.76,2.52,3.88,3.36,6.36c0.84,2.48,1.36,4.56,1.56,6.24
			c0.2,1.68,0.3,3.44,0.3,5.28v37.69h-7.2V23.17c0-5.2-1.4-9.26-4.2-12.18c-2.8-2.92-6.68-4.38-11.64-4.38c-5.6,0-9.88,2-12.84,6
			C262.69,16.61,261.21,21.53,261.21,27.37z"/>
		<path d="M371.53,33.61h-46.58c0.16,6.96,1.94,12.65,5.34,17.05c3.4,4.4,8.58,6.6,15.55,6.6c4.24,0,7.98-1.36,11.22-4.08
			c3.24-2.72,5.3-6.16,6.18-10.32h7.56c-3.6,14.01-12.69,21.01-27.25,21.01c-8.48,0-15-3.1-19.57-9.3
			c-4.56-6.2-6.84-13.75-6.84-22.63c0-8.8,2.36-16.33,7.08-22.57C328.96,3.12,335.56,0,344.04,0c9.52,0,16.49,3.06,20.89,9.18
			C369.33,15.31,371.53,23.45,371.53,33.61z M325.19,27.01h38.53c-0.48-6.16-2.36-11.1-5.64-14.83c-3.28-3.72-7.92-5.58-13.92-5.58
			c-5.52,0-9.95,1.96-13.26,5.88C327.57,16.41,325.68,21.25,325.19,27.01z"/>
		<path d="M3.24,136.81c0-5.76,2.16-10,6.48-12.72c4.32-2.72,9.52-4.08,15.61-4.08c13.84,0,21.17,5.56,21.97,16.69h-7.8
			c-0.64-6.72-5.6-10.08-14.89-10.08c-3.76,0-6.96,0.8-9.6,2.4c-2.64,1.6-3.96,4.04-3.96,7.32c0,1.68,0.42,3.08,1.26,4.2
			c0.84,1.12,2.18,2.06,4.02,2.82c1.84,0.76,3.74,1.4,5.7,1.92c1.96,0.52,4.6,1.22,7.92,2.1c3.32,0.88,6.34,1.8,9.06,2.76
			c3.12,1.12,5.6,2.94,7.44,5.46c1.84,2.52,2.76,5.38,2.76,8.58c0,6.4-2.48,11.28-7.44,14.65c-4.96,3.36-10.92,5.04-17.89,5.04
			c-3.76,0-7.26-0.56-10.5-1.68s-6.06-3.12-8.46-6c-2.4-2.88-3.64-6.4-3.72-10.56H9c0.24,4.16,1.92,7.14,5.04,8.94
			c3.12,1.8,7,2.7,11.64,2.7c4.24,0,7.92-1.02,11.04-3.06s4.68-5.02,4.68-8.94c0-2.48-0.94-4.56-2.82-6.24
			c-1.88-1.68-3.72-2.8-5.52-3.36c-1.8-0.56-4.7-1.28-8.7-2.16c-0.88-0.24-1.56-0.4-2.04-0.48c-2.96-0.72-5.34-1.38-7.14-1.98
			s-3.74-1.5-5.82-2.7c-2.08-1.2-3.62-2.76-4.62-4.68C3.74,141.73,3.24,139.45,3.24,136.81z"/>
		<path d="M70.46,165.98V128.4h-12v-6.6h12v-12.84l7.2-3.12v15.97h13.68v6.6H77.67v40.33c-0.16,5.68,2.6,8.52,8.28,8.52
			c2.64,0,4.72-0.24,6.24-0.72v6.24c-2.72,0.72-5.16,1.08-7.32,1.08c-2.32,0-4.34-0.2-6.06-0.6c-1.72-0.4-3.1-1.08-4.14-2.04
			c-1.04-0.96-1.86-1.84-2.46-2.64c-0.6-0.8-1.02-2-1.26-3.6c-0.24-1.6-0.38-2.84-0.42-3.72c-0.04-0.88-0.06-2.24-0.06-4.08
			C70.46,166.62,70.46,166.22,70.46,165.98z"/>
		<path d="M142.61,156.49V121.8h7.2v46.7c0,2.24,0.2,6.76,0.6,13.56h-7.44l-0.36-8.88l-0.24-0.24
			c-4.08,7.28-10.36,10.92-18.85,10.92c-3.76,0-7.02-0.64-9.78-1.92c-2.76-1.28-4.84-2.8-6.24-4.56c-1.4-1.76-2.52-3.88-3.36-6.36
			c-0.84-2.48-1.36-4.56-1.56-6.24c-0.2-1.68-0.3-3.44-0.3-5.28V121.8h7.2v38.89c0,5.2,1.4,9.26,4.2,12.18
			c2.8,2.92,6.68,4.38,11.64,4.38c5.6,0,9.88-2,12.84-6C141.13,167.26,142.61,162.34,142.61,156.49z"/>
		<path d="M210.91,182.06l-0.36-8.88l-0.24-0.48c-5.12,7.44-12,11.16-20.65,11.16c-4.24,0-8.02-0.96-11.34-2.88
			c-3.32-1.92-5.92-4.46-7.8-7.62c-1.88-3.16-3.28-6.56-4.2-10.2c-0.92-3.64-1.38-7.46-1.38-11.46c0-5.52,0.78-10.58,2.34-15.19
			c1.56-4.6,4.26-8.5,8.1-11.7c3.84-3.2,8.6-4.8,14.28-4.8c4.16,0,8.14,0.96,11.94,2.88c3.8,1.92,6.7,4.6,8.7,8.04l0.24-0.24V95.39
			h7.2v73.1c0,2.24,0.2,6.76,0.6,13.56H210.91z M210.31,150.49c0-6.8-1.6-12.48-4.8-17.05c-3.2-4.56-8.08-6.84-14.64-6.84
			c-4.32,0-7.9,1.26-10.74,3.78c-2.84,2.52-4.78,5.52-5.82,9c-1.04,3.48-1.56,7.3-1.56,11.46c0,3.12,0.26,6.1,0.78,8.94
			c0.52,2.84,1.36,5.64,2.52,8.4c1.16,2.76,2.92,4.96,5.28,6.6c2.36,1.64,5.18,2.46,8.46,2.46c4.96,0,9.04-1.32,12.25-3.96
			c3.2-2.64,5.38-5.86,6.54-9.66C209.73,159.83,210.31,155.45,210.31,150.49z"/>
		<path d="M243.68,95.39v9h-8.4v-9H243.68z M235.88,121.8h7.2v60.26h-7.2V121.8z"/>
		<path d="M265.35,129.48c4.84-6.32,11.78-9.48,20.83-9.48c9.04,0,15.98,3.16,20.83,9.48c4.84,6.32,7.26,13.8,7.26,22.45
			s-2.42,16.13-7.26,22.45c-4.84,6.32-11.79,9.48-20.83,9.48c-9.04,0-15.99-3.16-20.83-9.48c-4.84-6.32-7.26-13.8-7.26-22.45
			S260.51,135.81,265.35,129.48z M301.3,169.46c3.44-5.2,5.16-11.04,5.16-17.53c0-6.48-1.72-12.32-5.16-17.53
			c-3.44-5.2-8.48-7.8-15.12-7.8c-6.64,0-11.69,2.6-15.13,7.8c-3.44,5.2-5.16,11.04-5.16,17.53c0,6.48,1.72,12.32,5.16,17.53
			c3.44,5.2,8.48,7.8,15.13,7.8C292.82,177.26,297.86,174.66,301.3,169.46z"/>
	</g>
</g>
</svg>
